<svg xmlns="http://www.w3.org/2000/svg" viewBox="0 0 120 120" width="120" height="120">
  <rect width="120" height="120" rx="26" fill="#FEF2F2" stroke="#FECACA" stroke-width="2"/>
  <defs>
    <linearGradient id="hondaRed" x1="0%" y1="0%" x2="100%" y2="100%">
      <stop offset="0%" stop-color="#EF4444"/>
      <stop offset="100%" stop-color="#B91C1C"/>
    </linearGradient>
  </defs>
  <!-- Honda Soaring Wings -->
  <path d="M24 72 Q36 68 56 64 Q80 58 96 36 C86 48 70 54 52 56 Q36 58 24 72 Z" fill="url(#hondaRed)"/>
  <path d="M26 62 Q38 56 58 50 Q78 44 92 26 C82 36 68 42 50 44 Q36 46 26 62 Z" fill="url(#hondaRed)"/>
  <path d="M32 50 Q44 44 62 38 Q78 32 86 18 C78 26 66 31 52 33 Q40 35 32 50 Z" fill="url(#hondaRed)"/>
  <!-- Honda Bold Text Base -->
  <rect x="24" y="82" width="72" height="14" rx="4" fill="#B91C1C"/>
  <text x="60" y="93" fill="#FFFFFF" font-family="Arial, Helvetica, sans-serif" font-weight="900" font-size="10" text-anchor="middle" letter-spacing="1.5">HONDA</text>
</svg>